<svg viewBox="116.64 397.44 840.24 282.96000000000004" xml:space="preserve" version="1.1" xmlns:xlink="http://www.w3.org/1999/xlink" xmlns="http://www.w3.org/2000/svg" style="max-height: 500px" width="840.24" height="282.96000000000004">
<desc>Created with Fabric.js 5.2.4</desc>
<defs>
</defs>
<g id="eda1fefd-25c6-457e-86e2-d187be0db323" transform="matrix(1 0 0 1 540 540)">
<rect height="1080" width="1080" ry="0" rx="0" y="-540" x="-540" style="stroke: none; stroke-width: 1; stroke-dasharray: none; stroke-linecap: butt; stroke-dashoffset: 0; stroke-linejoin: miter; stroke-miterlimit: 4; fill: rgb(255,255,255); fill-rule: nonzero; opacity: 1; visibility: hidden;"/>
</g>
<g id="369452a9-bac4-47c9-af51-b6759f694340" transform="matrix(1 0 0 1 540 540)">
</g>
<g transform="matrix(0.67 0 0 0.67 658.67 544.33)">
<path stroke-linecap="round" d="M 0 0 L 588 0 L 583 8 L 594 9 L 590 16 L 576 34 L 549 70 L 533 91 L 519 110 L 505 128 L 491 147 L 475 168 L 461 187 L 447 205 L 433 224 L 417 245 L 403 264 L 389 282 L 375 301 L 359 322 L 347 338 L 346 339 L -242 339 L -238 332 L -237 331 L -248 330 L -242 321 L -226 300 L -190 252 L -174 231 L -170 225 L -182 224 L -183 223 L -183 31 L -182 30 L -152 30 L -151 133 L -142 123 L -112 93 L -108 88 L -68 87 L -70 91 L -111 132 L -118 140 L -127 149 L -123 155 L -119 158 L -105 139 L -89 118 L -80 106 L -64 85 L -50 66 L -34 45 L -20 26 L -4 5 z" transform="translate(-173, -169.5)" style="stroke: none; stroke-width: 1; stroke-dasharray: none; stroke-linecap: butt; stroke-dashoffset: 0; stroke-linejoin: miter; stroke-miterlimit: 4; fill: rgb(21,77,116); fill-rule: nonzero; opacity: 1;"/>
</g>
<g transform="matrix(0.67 0 0 0.67 656.67 541.33)">
<path stroke-linecap="round" d="M 0 0 L 588 0 L 582 9 L 6 10 L -8 28 L -22 47 L -38 68 L -50 84 L -66 105 L -80 124 L -112 166 L -106 173 L -99 181 L -87 194 L -78 204 L -66 217 L -61 224 L -101 224 L -111 213 L -120 202 L -130 191 L -139 202 L -151 218 L -152 224 L -157 226 L -173 247 L -187 266 L -203 287 L -217 306 L -231 324 L -235 330 L -248 330 L -242 321 L -226 300 L -190 252 L -174 231 L -170 225 L -182 224 L -183 223 L -183 31 L -182 30 L -152 30 L -151 133 L -142 123 L -112 93 L -108 88 L -68 87 L -70 91 L -111 132 L -118 140 L -127 149 L -123 155 L -119 158 L -105 139 L -89 118 L -80 106 L -64 85 L -50 66 L -34 45 L -20 26 L -4 5 z" transform="translate(-170, -165)" style="stroke: none; stroke-width: 1; stroke-dasharray: none; stroke-linecap: butt; stroke-dashoffset: 0; stroke-linejoin: miter; stroke-miterlimit: 4; fill: rgb(74,126,161); fill-rule: nonzero; opacity: 1;"/>
</g>
<g transform="matrix(0.67 0 0 0.67 280.67 535.33)">
<path stroke-linecap="round" d="M 0 0 L 25 0 L 40 4 L 49 9 L 59 18 L 66 30 L 70 44 L 70 139 L 42 139 L 42 126 L 30 135 L 22 139 L 15 141 L -1 142 L -16 140 L -29 135 L -38 128 L -44 121 L -49 109 L -50 103 L -50 92 L -47 81 L -42 72 L -35 65 L -25 59 L -8 54 L 1 53 L 39 53 L 37 42 L 31 33 L 24 29 L 20 28 L 4 28 L -6 32 L -13 40 L -17 51 L -48 51 L -46 37 L -42 27 L -35 18 L -26 10 L -14 4 z" transform="translate(-10, -71)" style="stroke: none; stroke-width: 1; stroke-dasharray: none; stroke-linecap: butt; stroke-dashoffset: 0; stroke-linejoin: miter; stroke-miterlimit: 4; fill: rgb(254,254,254); fill-rule: nonzero; opacity: 1;"/>
</g>
<g transform="matrix(0.67 0 0 0.67 572 522)">
<path stroke-linecap="round" d="M 0 0 L 19 0 L 30 4 L 41 11 L 45 15 L 49 13 L 57 6 L 69 1 L 73 0 L 91 0 L 103 4 L 112 10 L 121 19 L 127 31 L 129 37 L 130 48 L 130 153 L 127 160 L 122 164 L 115 164 L 109 160 L 107 157 L 106 45 L 103 36 L 96 28 L 86 24 L 77 24 L 68 28 L 63 33 L 59 40 L 58 45 L 57 156 L 54 161 L 49 164 L 40 163 L 35 157 L 34 47 L 32 38 L 26 30 L 18 25 L 14 24 L 5 24 L -5 28 L -11 35 L -14 42 L -15 155 L -18 161 L -23 164 L -32 163 L -37 158 L -38 155 L -38 42 L -35 30 L -30 20 L -21 10 L -11 4 z" transform="translate(-46, -82)" style="stroke: none; stroke-width: 1; stroke-dasharray: none; stroke-linecap: butt; stroke-dashoffset: 0; stroke-linejoin: miter; stroke-miterlimit: 4; fill: rgb(142,221,228); fill-rule: nonzero; opacity: 1;"/>
</g>
<g transform="matrix(0.67 0 0 0.67 681.67 537.33)">
<path stroke-linecap="round" d="M 0 0 L 19 0 L 31 3 L 44 10 L 54 19 L 61 28 L 66 38 L 70 54 L 70 113 L 66 119 L 62 121 L 53 120 L 48 114 L 47 109 L 36 116 L 21 121 L 8 122 L -6 120 L -19 115 L -30 107 L -38 99 L -46 86 L -50 73 L -51 67 L -51 54 L -47 38 L -41 26 L -30 14 L -22 8 L -9 2 z" transform="translate(-9.5, -61)" style="stroke: none; stroke-width: 1; stroke-dasharray: none; stroke-linecap: butt; stroke-dashoffset: 0; stroke-linejoin: miter; stroke-miterlimit: 4; fill: rgb(142,221,228); fill-rule: nonzero; opacity: 1;"/>
</g>
<g transform="matrix(0.67 0 0 0.67 460 516)">
<path stroke-linecap="round" d="M 0 0 L 21 0 L 22 109 L 51 80 L 58 72 L 73 57 L 99 57 L 93 64 L 84 74 L 45 113 L 46 117 L 54 125 L 61 133 L 73 146 L 82 156 L 94 169 L 103 179 L 106 184 L 79 184 L 67 171 L 60 163 L 48 149 L 37 137 L 30 129 L 22 120 L 21 184 L 0 184 z" transform="translate(-53, -92)" style="stroke: none; stroke-width: 1; stroke-dasharray: none; stroke-linecap: butt; stroke-dashoffset: 0; stroke-linejoin: miter; stroke-miterlimit: 4; fill: rgb(254,254,254); fill-rule: nonzero; opacity: 1;"/>
</g>
<g transform="matrix(0.67 0 0 0.67 369.33 535)">
<path stroke-linecap="round" d="M 0 0 L 16 0 L 26 2 L 36 6 L 45 13 L 52 22 L 56 34 L 56 39 L 35 39 L 31 29 L 26 24 L 18 20 L 12 19 L 4 19 L -5 21 L -11 25 L -15 31 L -15 40 L -12 45 L 0 51 L 30 59 L 43 64 L 51 70 L 57 77 L 60 85 L 60 103 L 56 113 L 47 123 L 37 129 L 28 132 L 22 133 L 2 133 L -14 129 L -25 123 L -34 115 L -40 105 L -44 92 L -44 90 L -22 90 L -16 102 L -9 109 L 1 113 L 6 114 L 18 114 L 28 111 L 33 108 L 37 101 L 37 89 L 34 84 L 34 82 L 28 80 L 12 75 L -8 70 L -20 65 L -29 59 L -35 52 L -38 43 L -38 32 L -35 22 L -29 14 L -20 6 L -10 2 z" transform="translate(-8, -66.5)" style="stroke: none; stroke-width: 1; stroke-dasharray: none; stroke-linecap: butt; stroke-dashoffset: 0; stroke-linejoin: miter; stroke-miterlimit: 4; fill: rgb(254,254,254); fill-rule: nonzero; opacity: 1;"/>
</g>
<g transform="matrix(0.67 0 0 0.67 773.67 536.67)">
<path stroke-linecap="round" d="M 0 0 L 19 0 L 33 4 L 43 10 L 53 19 L 60 28 L 65 40 L 67 48 L 67 114 L 62 119 L 60 120 L 51 119 L 46 114 L 45 57 L 43 46 L 37 35 L 29 28 L 17 23 L 2 23 L -8 27 L -16 33 L -22 43 L -25 54 L -26 113 L -29 118 L -33 120 L -42 119 L -47 114 L -48 111 L -48 53 L -45 39 L -37 23 L -28 13 L -18 6 L -5 1 z" transform="translate(-9.5, -60)" style="stroke: none; stroke-width: 1; stroke-dasharray: none; stroke-linecap: butt; stroke-dashoffset: 0; stroke-linejoin: miter; stroke-miterlimit: 4; fill: rgb(142,221,228); fill-rule: nonzero; opacity: 1;"/>
</g>
<g transform="matrix(0.67 0 0 0.67 440.33 551.33)">
<path stroke-linecap="round" d="M 0 0 L 30 0 L 31 103 L 40 93 L 70 63 L 74 58 L 114 57 L 112 61 L 71 102 L 64 110 L 55 119 L 59 125 L 66 132 L 73 140 L 85 153 L 94 163 L 116 187 L 121 194 L 81 194 L 71 183 L 62 172 L 52 161 L 43 172 L 31 188 L 30 194 L 25 196 L 9 217 L -5 236 L -21 257 L -35 276 L -49 294 L -53 300 L -66 300 L -60 291 L -44 270 L -8 222 L 8 201 L 12 195 L 0 194 L -1 193 L -1 1 z M 4 5 L 4 189 L 25 189 L 26 125 L 40 140 L 49 151 L 62 165 L 69 173 L 78 183 L 83 189 L 110 189 L 107 184 L 100 177 L 93 169 L 81 156 L 70 144 L 61 134 L 50 122 L 49 118 L 95 72 L 102 64 L 103 62 L 77 62 L 56 83 L 49 91 L 26 114 L 25 5 z" transform="translate(-27.5, -150)" style="stroke: none; stroke-width: 1; stroke-dasharray: none; stroke-linecap: butt; stroke-dashoffset: 0; stroke-linejoin: miter; stroke-miterlimit: 4; fill: rgb(127,128,128); fill-rule: nonzero; opacity: 1;"/>
</g>
<g transform="matrix(0.67 0 0 0.67 187.67 517.67)">
<path stroke-linecap="round" d="M 0 0 L 129 0 L 129 18 L 75 18 L 75 179 L 54 179 L 54 18 L 1 18 L 0 17 z" transform="translate(-64.5, -89.5)" style="stroke: none; stroke-width: 1; stroke-dasharray: none; stroke-linecap: butt; stroke-dashoffset: 0; stroke-linejoin: miter; stroke-miterlimit: 4; fill: rgb(254,254,254); fill-rule: nonzero; opacity: 1;"/>
</g>
<g transform="matrix(0.67 0 0 0.67 694.67 482.33)">
<path stroke-linecap="round" d="M 0 0 L 588 0 L 585 5 L 584 6 L 6 7 L -8 25 L -22 44 L -38 65 L -52 84 L -68 105 L -80 121 L -96 142 L -110 161 L -114 165 L -122 156 L -116 149 L -107 140 L -100 132 L -63 95 L -62 93 L -69 93 L -67 89 L -53 70 L -43 57 L -27 36 L -13 17 z" transform="translate(-233, -82.5)" style="stroke: none; stroke-width: 1; stroke-dasharray: none; stroke-linecap: butt; stroke-dashoffset: 0; stroke-linejoin: miter; stroke-miterlimit: 4; fill: rgb(142,221,228); fill-rule: nonzero; opacity: 1;"/>
</g>
<g transform="matrix(0.67 0 0 0.67 681.67 537.33)">
<path stroke-linecap="round" d="M 0 0 L 13 0 L 25 4 L 34 11 L 41 20 L 44 27 L 45 32 L 45 45 L 42 55 L 36 64 L 29 71 L 19 76 L 8 78 L -3 77 L -13 73 L -24 63 L -31 49 L -32 44 L -32 34 L -30 25 L -24 14 L -15 6 L -7 2 z" transform="translate(-6.5, -39)" style="stroke: none; stroke-width: 1; stroke-dasharray: none; stroke-linecap: butt; stroke-dashoffset: 0; stroke-linejoin: miter; stroke-miterlimit: 4; fill: rgb(21,77,116); fill-rule: nonzero; opacity: 1;"/>
</g>
<g transform="matrix(0.67 0 0 0.67 369.33 535.33)">
<path stroke-linecap="round" d="M 0 0 L 23 0 L 35 3 L 45 8 L 55 17 L 61 26 L 64 35 L 65 47 L 35 47 L 31 35 L 25 30 L 19 28 L 4 28 L -4 32 L -7 39 L -5 45 L 7 51 L 26 56 L 47 63 L 58 70 L 64 77 L 68 86 L 69 93 L 69 104 L 65 117 L 57 128 L 47 135 L 38 139 L 30 141 L 20 142 L 11 142 L -3 140 L -16 135 L -26 129 L -35 120 L -43 104 L -45 94 L -45 90 L -14 90 L -10 101 L -4 108 L 4 112 L 8 113 L 25 113 L 33 109 L 36 105 L 37 97 L 34 90 L 25 86 L -6 78 L -18 73 L -27 67 L -34 60 L -38 50 L -38 33 L -34 22 L -27 13 L -16 5 z M 4 4 L -12 8 L -21 14 L -28 21 L -33 31 L -34 36 L -34 47 L -31 56 L -24 64 L -14 70 L -1 75 L 27 82 L 36 86 L 38 86 L 40 91 L 41 93 L 41 105 L 37 112 L 27 117 L 22 118 L 10 118 L -1 115 L -7 111 L -14 103 L -18 94 L -40 94 L -38 104 L -32 116 L -25 124 L -14 131 L -4 135 L 6 137 L 26 137 L 38 134 L 48 129 L 58 120 L 63 110 L 64 107 L 64 89 L 60 79 L 52 71 L 40 65 L 19 59 L 4 55 L -8 49 L -11 44 L -11 35 L -7 29 L -1 25 L 8 23 L 16 23 L 25 25 L 33 30 L 38 40 L 39 43 L 60 43 L 59 34 L 55 25 L 49 17 L 40 10 L 27 5 L 20 4 z" transform="translate(-12, -71)" style="stroke: none; stroke-width: 1; stroke-dasharray: none; stroke-linecap: butt; stroke-dashoffset: 0; stroke-linejoin: miter; stroke-miterlimit: 4; fill: rgb(128,128,128); fill-rule: nonzero; opacity: 1;"/>
</g>
<g transform="matrix(0.67 0 0 0.67 187.67 517.67)">
<path stroke-linecap="round" d="M 0 0 L 137 0 L 137 27 L 84 27 L 84 189 L 53 189 L 53 27 L 0 27 z M 4 5 L 4 22 L 5 23 L 58 23 L 58 184 L 79 184 L 79 23 L 133 23 L 133 5 z" transform="translate(-68.5, -94.5)" style="stroke: none; stroke-width: 1; stroke-dasharray: none; stroke-linecap: butt; stroke-dashoffset: 0; stroke-linejoin: miter; stroke-miterlimit: 4; fill: rgb(128,128,128); fill-rule: nonzero; opacity: 1;"/>
</g>
<g transform="matrix(0.67 0 0 0.67 280.67 535.33)">
<path stroke-linecap="round" d="M 0 0 L 25 0 L 40 4 L 49 9 L 59 18 L 66 30 L 70 44 L 70 139 L 42 139 L 42 126 L 30 135 L 22 139 L 15 141 L -1 142 L -16 140 L -29 135 L -38 128 L -44 121 L -49 109 L -50 103 L -50 92 L -47 81 L -42 72 L -35 65 L -25 59 L -8 54 L 1 53 L 39 53 L 37 42 L 31 33 L 24 29 L 20 28 L 4 28 L -6 32 L -13 40 L -17 51 L -48 51 L -46 37 L -42 27 L -35 18 L -26 10 L -14 4 z M 4 4 L -12 8 L -22 13 L -32 21 L -39 31 L -42 40 L -43 47 L -21 47 L -14 33 L -6 27 L 2 24 L 8 23 L 16 23 L 28 26 L 36 32 L 41 40 L 43 47 L 44 57 L 9 57 L -5 58 L -20 62 L -30 67 L -37 73 L -43 83 L -45 90 L -45 106 L -41 117 L -34 126 L -23 133 L -14 136 L -8 137 L 11 137 L 22 134 L 30 130 L 38 123 L 44 115 L 45 115 L 46 133 L 47 134 L 66 134 L 66 49 L 63 35 L 57 23 L 51 16 L 40 9 L 28 5 L 21 4 z" transform="translate(-10, -71)" style="stroke: none; stroke-width: 1; stroke-dasharray: none; stroke-linecap: butt; stroke-dashoffset: 0; stroke-linejoin: miter; stroke-miterlimit: 4; fill: rgb(128,128,128); fill-rule: nonzero; opacity: 1;"/>
</g>
<g transform="matrix(0.67 0 0 0.67 591 533.33)">
<path stroke-linecap="round" d="M 0 0 L 9 0 L 19 4 L 26 11 L 26 13 L 21 12 L 11 12 L 1 17 L -4 23 L -7 30 L -8 143 L -11 149 L -16 152 L -23 152 L -29 148 L -31 144 L -31 141 L -23 137 L -21 133 L -20 22 L -17 13 L -12 6 L -6 2 z" transform="translate(2.5, -76)" style="stroke: none; stroke-width: 1; stroke-dasharray: none; stroke-linecap: butt; stroke-dashoffset: 0; stroke-linejoin: miter; stroke-miterlimit: 4; fill: rgb(69,133,160); fill-rule: nonzero; opacity: 1;"/>
</g>
<g transform="matrix(0.67 0 0 0.67 543 533.33)">
<path stroke-linecap="round" d="M 0 0 L 9 0 L 19 4 L 26 12 L 24 13 L 21 12 L 12 12 L 4 15 L -2 19 L -7 28 L -8 33 L -9 145 L -14 151 L -17 152 L -24 152 L -30 147 L -31 141 L -23 137 L -21 132 L -20 19 L -15 9 L -8 3 z" transform="translate(2.5, -76)" style="stroke: none; stroke-width: 1; stroke-dasharray: none; stroke-linecap: butt; stroke-dashoffset: 0; stroke-linejoin: miter; stroke-miterlimit: 4; fill: rgb(69,133,160); fill-rule: nonzero; opacity: 1;"/>
</g>
<g transform="matrix(0.67 0 0 0.67 767.67 547.67)">
<path stroke-linecap="round" d="M 0 0 L 15 0 L 27 5 L 36 13 L 36 15 L 26 12 L 11 12 L -1 17 L -9 25 L -14 35 L -15 39 L -16 98 L -18 105 L -24 109 L -31 109 L -38 103 L -39 98 L -31 95 L -29 91 L -28 32 L -25 21 L -19 11 L -12 5 L -4 1 z" transform="translate(1.5, -54.5)" style="stroke: none; stroke-width: 1; stroke-dasharray: none; stroke-linecap: butt; stroke-dashoffset: 0; stroke-linejoin: miter; stroke-miterlimit: 4; fill: rgb(69,133,160); fill-rule: nonzero; opacity: 1;"/>
</g>
<g transform="matrix(0.67 0 0 0.67 627.67 532.33)">
<path stroke-linecap="round" d="M 0 0 L 4 2 L 12 11 L 18 23 L 20 32 L 20 147 L 16 153 L 12 155 L 5 155 L -1 151 L -3 147 L -3 144 L 4 141 L 7 137 L 8 133 L 8 28 L 7 17 L 2 4 z" transform="translate(-8.5, -77.5)" style="stroke: none; stroke-width: 1; stroke-dasharray: none; stroke-linecap: butt; stroke-dashoffset: 0; stroke-linejoin: miter; stroke-miterlimit: 4; fill: rgb(69,133,160); fill-rule: nonzero; opacity: 1;"/>
</g>
<g transform="matrix(0.67 0 0 0.67 281 552.33)">
<path stroke-linecap="round" d="M 0 0 L 39 0 L 38 10 L 32 22 L 24 30 L 16 34 L 13 35 L -3 35 L -12 31 L -17 25 L -18 23 L -18 14 L -15 8 L -9 3 z" transform="translate(-10.5, -17.5)" style="stroke: none; stroke-width: 1; stroke-dasharray: none; stroke-linecap: butt; stroke-dashoffset: 0; stroke-linejoin: miter; stroke-miterlimit: 4; fill: rgb(254,254,254); fill-rule: nonzero; opacity: 1;"/>
</g>
<g transform="matrix(0.67 0 0 0.67 408.67 616)">
<path stroke-linecap="round" d="M 0 0 L 13 0 L 7 9 L -7 27 L -21 46 L -37 67 L -51 86 L -65 104 L -66 106 L -79 106 L -73 97 L -57 76 L -21 28 L -5 7 z" transform="translate(33, -53)" style="stroke: none; stroke-width: 1; stroke-dasharray: none; stroke-linecap: butt; stroke-dashoffset: 0; stroke-linejoin: miter; stroke-miterlimit: 4; fill: rgb(74,126,161); fill-rule: nonzero; opacity: 1;"/>
</g>
<g transform="matrix(0.67 0 0 0.67 679 534.67)">
<path stroke-linecap="round" d="M 0 0 L 13 0 L 25 4 L 34 11 L 37 14 L 36 16 L 29 13 L 24 12 L 11 12 L -1 16 L -10 23 L -17 34 L -19 40 L -20 52 L -18 62 L -15 70 L -19 68 L -26 60 L -31 49 L -32 44 L -32 34 L -30 25 L -24 14 L -15 6 L -7 2 z" transform="translate(-2.5, -35)" style="stroke: none; stroke-width: 1; stroke-dasharray: none; stroke-linecap: butt; stroke-dashoffset: 0; stroke-linejoin: miter; stroke-miterlimit: 4; fill: rgb(69,133,160); fill-rule: nonzero; opacity: 1;"/>
</g>
<g transform="matrix(0.67 0 0 0.67 812.67 548.33)">
<path stroke-linecap="round" d="M 0 0 L 4 2 L 13 13 L 19 26 L 21 33 L 22 42 L 22 98 L 19 104 L 14 107 L 7 107 L 2 104 L 0 101 L 0 96 L 7 93 L 9 90 L 9 24 L 5 10 z" transform="translate(-11, -53.5)" style="stroke: none; stroke-width: 1; stroke-dasharray: none; stroke-linecap: butt; stroke-dashoffset: 0; stroke-linejoin: miter; stroke-miterlimit: 4; fill: rgb(69,133,160); fill-rule: nonzero; opacity: 1;"/>
</g>
<g transform="matrix(0.67 0 0 0.67 722 549.33)">
<path stroke-linecap="round" d="M 0 0 L 4 2 L 13 14 L 18 25 L 21 37 L 21 98 L 17 104 L 13 106 L 7 106 L 1 102 L -1 98 L -1 95 L 7 91 L 9 87 L 9 28 L 5 12 L 0 2 z" transform="translate(-10, -53)" style="stroke: none; stroke-width: 1; stroke-dasharray: none; stroke-linecap: butt; stroke-dashoffset: 0; stroke-linejoin: miter; stroke-miterlimit: 4; fill: rgb(69,133,160); fill-rule: nonzero; opacity: 1;"/>
</g>
<g transform="matrix(0.67 0 0 0.67 402.33 614)">
<path stroke-linecap="round" d="M 0 0 L 10 0 L 6 7 L -8 25 L -17 37 L -31 56 L -45 74 L -59 93 L -64 100 L -75 100 L -69 91 L -53 70 L -38 50 L -22 29 L -8 10 z" transform="translate(32.5, -50)" style="stroke: none; stroke-width: 1; stroke-dasharray: none; stroke-linecap: butt; stroke-dashoffset: 0; stroke-linejoin: miter; stroke-miterlimit: 4; fill: rgb(142,221,228); fill-rule: nonzero; opacity: 1;"/>
</g>
<g transform="matrix(0.67 0 0 0.67 281 552.33)">
<path stroke-linecap="round" d="M 0 0 L 39 0 L 39 9 L 35 22 L 29 32 L 20 40 L 11 44 L 6 45 L -6 45 L -16 42 L -22 38 L -26 33 L -28 26 L -27 16 L -22 8 L -14 3 L -8 1 z M -5 5 L -16 9 L -22 16 L -23 19 L -23 28 L -19 34 L -14 38 L -8 40 L 8 40 L 17 36 L 25 29 L 31 20 L 34 11 L 34 5 z" transform="translate(-5.5, -22.5)" style="stroke: none; stroke-width: 1; stroke-dasharray: none; stroke-linecap: butt; stroke-dashoffset: 0; stroke-linejoin: miter; stroke-miterlimit: 4; fill: rgb(128,128,128); fill-rule: nonzero; opacity: 1;"/>
</g>
<g transform="matrix(0.67 0 0 0.67 686 576.67)">
<path stroke-linecap="round" d="M 0 0 L 1 0 L 3 8 L 6 11 L 9 12 L 9 14 L -7 22 L -15 24 L -37 24 L -50 20 L -60 15 L -71 5 L -68 5 L -56 10 L -49 12 L -36 13 L -22 11 L -9 6 z" transform="translate(31, -12)" style="stroke: none; stroke-width: 1; stroke-dasharray: none; stroke-linecap: butt; stroke-dashoffset: 0; stroke-linejoin: miter; stroke-miterlimit: 4; fill: rgb(69,133,160); fill-rule: nonzero; opacity: 1;"/>
</g>
<g transform="matrix(0.67 0 0 0.67 477.33 514.67)">
<path stroke-linecap="round" d="M 0 0 L 0 3 L -10 16 L -26 37 L -40 56 L -49 68 L -56 62 L -58 58 L -43 43 L -37 36 L -29 29 z" transform="translate(29, -34)" style="stroke: none; stroke-width: 1; stroke-dasharray: none; stroke-linecap: butt; stroke-dashoffset: 0; stroke-linejoin: miter; stroke-miterlimit: 4; fill: rgb(144,221,228); fill-rule: nonzero; opacity: 1;"/>
</g>
<g transform="matrix(0.67 0 0 0.67 449 565)">
<path stroke-linecap="round" d="M 0 0 L 4 2 L 7 6 L 6 10 L -10 31 L -14 35 L -14 18 L -2 3 z" transform="translate(3.5, -17.5)" style="stroke: none; stroke-width: 1; stroke-dasharray: none; stroke-linecap: butt; stroke-dashoffset: 0; stroke-linejoin: miter; stroke-miterlimit: 4; fill: rgb(74,126,161); fill-rule: nonzero; opacity: 1;"/>
</g>
<g transform="matrix(0.67 0 0 0.67 446.67 553.67)">
<path stroke-linecap="round" d="M 0 0 L 5 4 L 14 15 L 14 18 L 2 34 L 0 35 z" transform="translate(-7, -17.5)" style="stroke: none; stroke-width: 1; stroke-dasharray: none; stroke-linecap: butt; stroke-dashoffset: 0; stroke-linejoin: miter; stroke-miterlimit: 4; fill: rgb(142,221,228); fill-rule: nonzero; opacity: 1;"/>
</g>
<g transform="matrix(0.67 0 0 0.67 445 549.33)">
<path stroke-linecap="round" d="M 0 0 L 5 4 L 9 9 L 7 14 L 1 22 L 0 22 z" transform="translate(-4.5, -11)" style="stroke: none; stroke-width: 1; stroke-dasharray: none; stroke-linecap: butt; stroke-dashoffset: 0; stroke-linejoin: miter; stroke-miterlimit: 4; fill: rgb(254,254,254); fill-rule: nonzero; opacity: 1;"/>
</g>
<g transform="matrix(0.67 0 0 0.67 463 527)">
<path stroke-linecap="round" d="M 0 0 L 0 3 L -12 19 L -15 15 z" transform="translate(7.5, -9.5)" style="stroke: none; stroke-width: 1; stroke-dasharray: none; stroke-linecap: butt; stroke-dashoffset: 0; stroke-linejoin: miter; stroke-miterlimit: 4; fill: rgb(254,254,254); fill-rule: nonzero; opacity: 1;"/>
</g>
</svg>