<?xml version="1.0" encoding="utf-8"?>

<!DOCTYPE svg PUBLIC "-//W3C//DTD SVG 1.1//EN" "http://www.w3.org/Graphics/SVG/1.1/DTD/svg11.dtd">
<!-- Uploaded to: SVG Repo, www.svgrepo.com, Generator: SVG Repo Mixer Tools -->
<svg height="800px" width="800px" version="1.1" id="_x32_" xmlns="http://www.w3.org/2000/svg" xmlns:xlink="http://www.w3.org/1999/xlink"
	 viewBox="0 0 24 24"  xml:space="preserve" fill="#000000">
<g>
	<path class="st0" d="M23.1151 2.9148l-.0017-.0017c-.0027-.0027-.0048-.0053-.0074-.0079h-.0005c-.003-.0027-.0043-.0043-.0092-.0087l-1.7306-1.7307c-.0004-.0009-.0013-.0013-.0022-.0022C20.5899.3901 19.5673-.0013 18.5532.0005c-1.014-.0017-2.0367.3892-2.8112 1.1641L14.1133 2.7934l-.6183.6178L0 16.9067V24.2688h7.3625l13.4952-13.4947.6182-.6182 1.6287-1.6291c.7745-.7741 1.1655-1.7973 1.1641-2.8107.0013-1.0092-.3866-2.0271-1.1525-2.7994L23.1151 2.9148zM6.4735 22.1233h-4.3276v-4.3275l12.8665-12.867 4.3275 4.3276L6.4735 22.1233zM21.5873 7.0094l-1.0109 1.0105-4.3271-4.3275L17.2598 2.6819c.3592-.3587.8224-.5346 1.2935-.5359.4711.0013.9339.1772 1.2935.5359l1.7406 1.7401c.3587.3596.5346.8229.5355 1.2939zC22.122 6.187 21.9461 6.6498 21.5873 7.0094z"/>
</g>
</svg>