<?xml version="1.0" encoding="UTF-8" standalone="no"?>
<!-- Uploaded to: SVG Repo, www.svgrepo.com, Generator: SVG Repo Mixer Tools -->
<svg width="800px" height="800px" viewBox="0 0 32 32" version="1.1" xmlns="http://www.w3.org/2000/svg" xmlns:xlink="http://www.w3.org/1999/xlink" xmlns:sketch="http://www.bohemiancoding.com/sketch/ns">

    <title>plus-circle</title>
    <desc>Created with Sketch Beta.</desc>
    <defs>

</defs>
    <g id="Page-1" stroke="none" stroke-width="0" fill="none" fill-rule="evenodd" sketch:type="MSPage">
        <g id="Icon-Set-Filled" sketch:type="MSLayerGroup" transform="translate(-466.000000, -1089.000000)" fill="#000000">
            <path d="M488 1106 483 1106 483 1111C483 1111.55 482.553 1112 482 1112 481.447 1112 481 1111.55 481 1111L481 1106 476 1106C475.447 1106 475 1105.55 475 1105 475 1104.45 475.447 1104 476 1104L481 1104 481 1099C481 1098.45 481.447 1098 482 1098 482.553 1098 483 1098.45 483 1099L483 1104 488 1104C488.553 1104 489 1104.45 489 1105 489 1105.55 488.553 1106 488 1106L488 1106ZM482 1091C474 1091 468 1097 468 1105 468 1113 474 1119 482 1119 490 1119 496 1113 496 1105 496 1097 490 1091 482 1091L482 1091Z" id="plus-circle" sketch:type="MSShapeGroup">

</path>
        </g>
    </g>
</svg>